<svg id="Layer_1" data-name="Layer 1" xmlns="http://www.w3.org/2000/svg" viewBox="0 0 664.84 121.87"><defs><style>.cls-1{fill:#212b36;}.cls-2{fill:#ee5b6a;}.cls-3{fill:#febd09;}</style></defs><title>Sunrise Bookkeeping</title><path class="cls-1" d="M619.06,35.85a35,35,0,0,0,1.39,70A34.93,34.93,0,0,0,648,92.27s1.28-1.71,1.38-1.92l.15-.3a5.19,5.19,0,0,0-8.7-5.47A24.61,24.61,0,0,1,596.44,76h53.8a5.21,5.21,0,0,0,5.21-5.22A35,35,0,0,0,619.06,35.85ZM596.44,65.61a24.57,24.57,0,0,1,48,0Z"/><path class="cls-1" d="M495.34,35.84a5.22,5.22,0,0,0-5.21,5.22v59.57a5.22,5.22,0,0,0,10.43,0V41.06A5.22,5.22,0,0,0,495.34,35.84Z"/><path class="cls-1" d="M495.42,10.1a5.19,5.19,0,1,0,5.18,5.19A5.19,5.19,0,0,0,495.42,10.1Z"/><path class="cls-1" d="M546.59,65.86c-5.53-1.17-18.49-2.52-18.91-10-.31-5.61,6.89-9.81,16.9-9.66,9.37.15,14,3.23,17,4.54a10.5,10.5,0,0,0,3.55,1,5,5,0,0,0,2.68-.77l.09,0a5.29,5.29,0,0,0,.75-.57h0a5.19,5.19,0,0,0,1.67-3.8A5.53,5.53,0,0,0,568,42.05c-1.05-.79-8.32-6.23-22.63-6.24-18.31,0-28,9.15-28,20.55,0,15.06,15.83,17.72,26.65,19.53s17.81,4.38,18.26,9.87-6.63,9.93-16.64,9.71c-9.6-.22-15-2.77-17.89-4.64-.66-.43-2.37-1.73-3.23-2.14a5.08,5.08,0,0,0-2-.55,5.16,5.16,0,0,0-3.77,8.72l3.61,2.67c1.19.75,2.48,1.54,2.48,1.54a42,42,0,0,0,20.35,4.77c18.32,0,27.5-9.14,27.5-20.55C572.59,70.24,557.2,68.1,546.59,65.86Z"/><path class="cls-1" d="M476.86,37.43A5.53,5.53,0,0,0,472,35.92c-1.31.18-10.29,1.47-20.41,11.59-.09.08-.16.17-.24.25V41.07a5.22,5.22,0,1,0-10.44,0v59.56a5.22,5.22,0,1,0,10.44,0V67.23c.62-3.65,3-7.9,7.07-11.82,6.73-6.52,12.21-7.64,15.24-8.82a10.43,10.43,0,0,0,3.21-1.82,5.08,5.08,0,0,0,1.35-2.43l0-.11a5.77,5.77,0,0,0,.12-.93h0A5.2,5.2,0,0,0,476.86,37.43Z"/><path class="cls-1" d="M240.86,65.86c-5.53-1.17-18.49-2.52-18.91-10-.32-5.61,6.89-9.81,16.9-9.66,9.37.15,14,3.23,17,4.54a10.43,10.43,0,0,0,3.55,1,5,5,0,0,0,2.67-.77.31.31,0,0,0,.1,0,5.19,5.19,0,0,0,.74-.57h0a5.16,5.16,0,0,0,1.68-3.8,5.53,5.53,0,0,0-2.37-4.51c-1.06-.79-8.32-6.23-22.63-6.24-18.31,0-28,9.15-28,20.55,0,15.06,15.83,17.72,26.65,19.53s17.8,4.38,18.25,9.87-6.62,9.93-16.63,9.71c-9.61-.22-15-2.77-17.89-4.64-.66-.43-2.37-1.73-3.23-2.14a5.1,5.1,0,0,0-5.81,8.17l3.61,2.67c1.19.75,2.48,1.54,2.48,1.54a42,42,0,0,0,20.35,4.77c18.31,0,27.5-9.14,27.5-20.55C266.86,70.24,251.47,68.1,240.86,65.86Z"/><path class="cls-1" d="M392,35.86c-8.57,0-15.64,2.78-21.47,8.59V41.06a5.22,5.22,0,1,0-10.43,0v59.58a5.22,5.22,0,1,0,10.43,0V67.76c0-13.89,11.33-21.64,21.47-21.64,12.85,0,21.67,10.37,21.67,22.28v32.24a5.22,5.22,0,0,0,5.22,5.22h0a5.22,5.22,0,0,0,5.22-5.22V68.4C424.08,57.69,415.61,35.84,392,35.86Z"/><path class="cls-1" d="M338.51,35.84a5.22,5.22,0,0,0-5.21,5.22V73.94c0,13.89-11.33,21.64-21.47,21.64-12.85,0-21.67-10.37-21.67-22.28V41.06a5.22,5.22,0,0,0-5.22-5.22h0a5.22,5.22,0,0,0-5.21,5.22V73.3c0,10.72,8.47,32.56,32.11,32.54,8.57,0,15.64-2.77,21.47-8.59v3.39a5.22,5.22,0,1,0,10.43,0V41.06A5.22,5.22,0,0,0,338.51,35.84Z"/><path class="cls-2" d="M103.93,17.2V84.37a21.06,21.06,0,0,1-21.06,21.06H13.4a1.91,1.91,0,0,1-1.92-2A91.32,91.32,0,0,1,102,15.29,1.91,1.91,0,0,1,103.93,17.2Z"/><path class="cls-3" d="M113,40.32V84.21a21.22,21.22,0,0,0,21.22,21.22h45.59a1.91,1.91,0,0,0,1.91-2,67.91,67.91,0,0,0-66.81-65A1.91,1.91,0,0,0,113,40.32Z"/></svg>